<?xml version="1.0" encoding="UTF-8" standalone="no"?>
<!-- Uploaded to: SVG Repo, www.svgrepo.com, Generator: SVG Repo Mixer Tools -->

<svg
   width="357.89474"
   height="400"
   viewBox="0 0 34.000001 38"
   version="1.1"
   enable-background="new 0 0 76.00 76.00"
   xml:space="preserve"
   id="svg2"
   sodipodi:docname="sql.svg"
   inkscape:version="1.3.2 (091e20e, 2023-11-25)"
   xmlns:inkscape="http://www.inkscape.org/namespaces/inkscape"
   xmlns:sodipodi="http://sodipodi.sourceforge.net/DTD/sodipodi-0.dtd"
   xmlns="http://www.w3.org/2000/svg"
   xmlns:svg="http://www.w3.org/2000/svg"><defs
   id="defs2" /><sodipodi:namedview
   id="namedview2"
   pagecolor="#ffffff"
   bordercolor="#000000"
   borderopacity="0.25"
   inkscape:showpageshadow="2"
   inkscape:pageopacity="0.0"
   inkscape:pagecheckerboard="0"
   inkscape:deskcolor="#d1d1d1"
   showguides="false"
   inkscape:zoom="0.295"
   inkscape:cx="179.66102"
   inkscape:cy="200"
   inkscape:window-width="1312"
   inkscape:window-height="449"
   inkscape:window-x="0"
   inkscape:window-y="25"
   inkscape:window-maximized="0"
   inkscape:current-layer="svg2" />
	<path
   fill="#000000"
   fill-opacity="0.701961"
   stroke-width="0.2"
   stroke-linejoin="round"
   d="m 17,14 c 9.384,0 16.9921,-2.0126 17,-4.4961 V 33.5 C 34,35.9853 26.3888,38 17,38 v -7.8421 l 0.0675,0.0021 1.1625,1.2537 c 0.3733,0.3892 0.7571,0.728 1.1513,1.0163 0.3941,0.2883 0.8062,0.5154 1.2362,0.6813 0.43,0.1658 0.9008,0.2487 1.4125,0.2487 L 23.1075,33.2913 23.8,33.155 v -2.07 L 23.5425,31.1663 23.25,31.2288 22.9487,31.2675 22.675,31.28 21.8237,31.215 21.0613,30.9813 20.3237,30.5213 19.55,29.7775 C 20.635,29.3892 21.4808,28.72 22.0875,27.77 22.6958,26.81 23,25.6633 23,24.33 23,22.6233 22.5025,21.2508 21.5075,20.2125 20.5175,19.1642 19.2233,18.64 17.625,18.64 L 17,18.6653 Z M 31,4.5 h 3 v 2 C 34,8.9853 26.3888,11 17,11 V 6 C 24.732,6 31,5.3285 31,4.5 Z M 17.5375,20.88 c 0.86,0 1.5325,0.3192 2.0175,0.9575 0.4833,0.6283 0.725,1.5025 0.725,2.6225 0,1.08 -0.2525,1.9292 -0.7575,2.5475 C 19.0242,27.6158 18.3417,27.92 17.475,27.92 L 17,27.8837 V 20.9251 Z M 31.48,30 V 27.92 H 27.32 V 18.8 H 24.76 V 30 Z"
   id="path1" />
	<path
   fill="#000000"
   fill-opacity="1"
   stroke-width="0.2"
   stroke-linejoin="round"
   d="M 17,38 C 7.6111,38 0,35.9853 0,33.5 V 9.5 C 0,11.9853 7.6112,14 17,14 v 4.6436 c -1.4391,0.1153 -2.6124,0.6524 -3.52,1.6113 -1.0267,1.085 -1.54,2.5117 -1.54,4.28 0,0.7734 0.1216,1.4975 0.365,2.1725 0.2433,0.675 0.5879,1.263 1.0337,1.7638 0.4459,0.5008 0.9829,0.8991 1.6113,1.195 0.6154,0.2897 1.2987,0.4472 2.05,0.4723 z M 34,4.5 H 31 C 31,3.6716 24.732,3 17,3 9.268,3 3,3.6716 3,4.5 3,5.3285 9.268,6 17,6 v 5 C 7.6111,11 0,8.9853 0,6.5 v -2 C 0,2.0148 7.6112,0 17,0 26.384,0 33.9921,2.0127 34,4.5 Z M 3.14,29.5324 c 0.4083,0.2017 0.8912,0.3534 1.4487,0.455 0.5575,0.1017 1.1454,0.1525 1.7638,0.1525 0.6016,0 1.1733,-0.057 1.715,-0.1712 0.5416,-0.1142 1.0166,-0.3021 1.425,-0.5638 0.4083,-0.2616 0.7316,-0.6033 0.97,-1.025 0.2383,-0.4216 0.3575,-0.9433 0.3575,-1.565 0,-0.45 -0.0667,-0.8445 -0.2,-1.1837 C 10.4866,25.292 10.2941,24.9904 10.0425,24.7262 9.7908,24.462 9.4891,24.2249 9.1375,24.0149 l -1.19,-0.595 -0.87,-0.3912 -0.655,-0.3888 -0.4163,-0.4187 C 5.9087,22.0737 5.86,21.9066 5.86,21.7199 c 0,-0.1783 0.0437,-0.3395 0.1312,-0.4837 l 0.37,-0.3713 0.5863,-0.24 0.77,-0.085 0.6525,0.0475 0.69,0.1475 0.675,0.2525 0.605,0.3525 V 19.0424 C 9.96,18.8991 9.5445,18.7929 9.0937,18.7237 L 7.5425,18.6199 c -0.595,0 -1.1584,0.0634 -1.69,0.19 -0.5317,0.1267 -0.9996,0.325 -1.4038,0.595 -0.4042,0.27 -0.7233,0.6134 -0.9575,1.03 -0.2342,0.4167 -0.3512,0.915 -0.3512,1.495 0,0.74 0.2116,1.3717 0.635,1.895 0.4233,0.5234 1.0666,0.9659 1.93,1.3275 l 0.9462,0.4125 0.7588,0.42 0.505,0.4738 C 8.0383,26.6295 8.1,26.8233 8.1,27.0399 L 7.9837,27.5074 C 7.9062,27.6508 7.7883,27.7754 7.63,27.8812 l -0.5913,0.2487 -0.8287,0.09 c -0.5384,0 -1.0717,-0.0933 -1.6,-0.28 -0.5284,-0.1866 -1.0184,-0.4666 -1.47,-0.84 z m 12.2925,-7.7 C 15.8449,21.3182 16.3674,21.0079 17,20.9016 v 6.9651 c -0.6317,-0.0958 -1.1567,-0.3989 -1.575,-0.9093 -0.51,-0.6333 -0.765,-1.4875 -0.765,-2.5625 0,-1.065 0.2575,-1.9191 0.7725,-2.5625 z"
   id="path2" />
</svg>
